<?xml version="1.0" encoding="utf-8"?>
<!-- Generator: Adobe Illustrator 22.1.0, SVG Export Plug-In . SVG Version: 6.00 Build 0)  -->
<svg version="1.1" id="Ebene_1" xmlns="http://www.w3.org/2000/svg" xmlns:xlink="http://www.w3.org/1999/xlink" x="0px" y="0px"
	 viewBox="0 0 206 173.3" style="enable-background:new 0 0 206 173.3;" xml:space="preserve">
<style type="text/css">
	.st0{fill:none;stroke:#36C7D6;stroke-width:2;stroke-linecap:round;stroke-miterlimit:10;}
	.st1{fill:none;stroke:#36C7D6;stroke-width:2;stroke-linecap:round;stroke-miterlimit:10;stroke-dasharray:6.01,6.01;}
	.st2{opacity:0.15;fill:#36C7D6;enable-background:new    ;}
	.st3{fill:#9CE3EB;stroke:#36C7D6;stroke-width:2;stroke-miterlimit:10;}
	.st4{fill:#FFFFFF;stroke:#36C7D6;stroke-width:2;stroke-linejoin:round;}
	.st5{fill:#FFFFFF;stroke:#36C7D6;stroke-width:2;stroke-miterlimit:10;}
	.st6{fill:none;stroke:#36C7D6;stroke-width:2;stroke-miterlimit:10;}
</style>
<title>404-icon-6</title>
<polyline class="st0" points="117.4,51.8 114.5,51 112.4,53.1 "/>
<path class="st1" d="M108.2,57.4L1.8,166.4c-0.4,0.1-0.7,0.4-0.8,0.8c0,2.8,26.9,5,60,5s60-2.2,60-5l6.1-106.8"/>
<polyline class="st0" points="127.3,57.5 127.5,54.5 124.6,53.7 "/>
<ellipse class="st2" cx="61" cy="167.3" rx="60" ry="5"/>
<path class="st3" d="M204,59.3c0,0-40.3,9.2-83.9-2.5S46.2,17.1,46.2,17.1s40.3-9.2,83.9,2.5S204,59.3,204,59.3z"/>
<path class="st4" d="M122.6,47.3c26.5,7,53.8,11,81.2,12c-2-1.8-31.7-28.4-73.8-39.7S49,16.5,46.4,17.1
	C70.6,29.9,96.2,40,122.6,47.3z"/>
<path class="st5" d="M128.4,25.8c10.7,2.9,21.5,4.9,32.5,5.9c2.1-11.7-9.3-24.5-26.3-29s-33.3,0.8-37.3,12
	C107.3,19.3,117.7,23,128.4,25.8z"/>
<line class="st6" x1="128.4" y1="25.8" x2="122.6" y2="47.3"/>
<line class="st6" x1="109.6" y1="19.8" x2="76.7" y2="31.4"/>
<line class="st6" x1="147.8" y1="30" x2="170.4" y2="56.5"/>
<path class="st0" d="M147.1,15.7c-3.7-3.4-8.2-5.8-13-7"/>
<path class="st0" d="M152.1,23.1c-0.6-1.6-1.4-3.1-2.4-4.5"/>
</svg>
