<?xml version="1.0" encoding="utf-8"?>
<!-- Generator: Adobe Illustrator 22.0.1, SVG Export Plug-In . SVG Version: 6.00 Build 0)  -->
<svg version="1.1" id="Ebene_1" xmlns="http://www.w3.org/2000/svg" xmlns:xlink="http://www.w3.org/1999/xlink" x="0px" y="0px"
	 viewBox="0 0 1211 2522" style="enable-background:new 0 0 1211 2522;" xml:space="preserve">
<style type="text/css">
	.st0{fill:#070707;}
</style>
<path id="case" class="st0" d="M146,0h919c80.6,0,146,65.4,146,146v2230c0,80.6-65.4,146-146,146H146c-80.6,0-146-65.4-146-146V146
	l0,0C0,65.4,65.4,0,146,0L146,0z M1071.9,43c-50.7,0-135,0-140,0c-12.1,0-20,9-22.9,25.2c-9.6,57.6-41.1,61.6-50.4,61.6
	c-7.9,0-498,0-506.2,0c-9.3,0-41.1-4.3-50.4-61.6C299.5,52,291.6,43,279.1,43c-5.4,0-89.3,0-140,0S43,97,43,148.6s0,2170.9,0,2232.1
	c0,63.8,64.3,98.3,95,98.3c16.8,0,918.1,0,934.9,0c30.7,0,95-34.6,95-98.3c0-61.2,0-2202.9,0-2232.1C1168.4,97,1122.6,43,1071.9,43z
	"/>
</svg>
